<?xml version="1.0" encoding="UTF-8" standalone="no"?>
<!DOCTYPE svg PUBLIC "-//W3C//DTD SVG 1.1//EN"
 "http://www.w3.org/Graphics/SVG/1.1/DTD/svg11.dtd">
<!-- Generated by graphviz version 2.50.0 (0)
 -->
<!-- Pages: 1 -->
<svg width="555pt" height="188pt"
 viewBox="0.00 0.00 554.73 188.00" xmlns="http://www.w3.org/2000/svg" xmlns:xlink="http://www.w3.org/1999/xlink">
<g id="graph0" class="graph" transform="scale(1 1) rotate(0) translate(4 184)">
<polygon fill="white" stroke="transparent" points="-4,4 -4,-184 550.73,-184 550.73,4 -4,4"/>
<!-- log_generator1 -->
<g id="node1" class="node">
<title>log_generator1</title>
<polygon fill="none" stroke="black" points="250.87,-180 116.79,-180 69.04,-144 298.62,-144 250.87,-180"/>
<text text-anchor="middle" x="183.83" y="-158.3" font-family="Times,serif" font-size="14.00">log_generator1</text>
</g>
<!-- default_dedot_and_flatten -->
<g id="node4" class="node">
<title>default_dedot_and_flatten</title>
<polygon fill="none" stroke="black" points="183.83,-108 0.17,-90 183.83,-72 367.49,-90 183.83,-108"/>
<text text-anchor="middle" x="183.83" y="-86.3" font-family="Times,serif" font-size="14.00">default_dedot_and_flatten</text>
</g>
<!-- log_generator1&#45;&gt;default_dedot_and_flatten -->
<g id="edge2" class="edge">
<title>log_generator1&#45;&gt;default_dedot_and_flatten</title>
<path fill="none" stroke="black" d="M183.83,-143.7C183.83,-135.98 183.83,-126.71 183.83,-118.11"/>
<polygon fill="black" stroke="black" points="187.33,-118.1 183.83,-108.1 180.33,-118.1 187.33,-118.1"/>
</g>
<!-- log_generator2 -->
<g id="node2" class="node">
<title>log_generator2</title>
<polygon fill="none" stroke="black" points="498.87,-180 364.79,-180 317.04,-144 546.62,-144 498.87,-180"/>
<text text-anchor="middle" x="431.83" y="-158.3" font-family="Times,serif" font-size="14.00">log_generator2</text>
</g>
<!-- viaq -->
<g id="node3" class="node">
<title>viaq</title>
<polygon fill="none" stroke="black" points="431.83,-108 388.43,-90 431.83,-72 475.23,-90 431.83,-108"/>
<text text-anchor="middle" x="431.83" y="-86.3" font-family="Times,serif" font-size="14.00">viaq</text>
</g>
<!-- log_generator2&#45;&gt;viaq -->
<g id="edge1" class="edge">
<title>log_generator2&#45;&gt;viaq</title>
<path fill="none" stroke="black" d="M431.83,-143.7C431.83,-135.98 431.83,-126.71 431.83,-118.11"/>
<polygon fill="black" stroke="black" points="435.33,-118.1 431.83,-108.1 428.33,-118.1 435.33,-118.1"/>
</g>
<!-- blackhole2 -->
<g id="node6" class="node">
<title>blackhole2</title>
<polygon fill="none" stroke="black" points="381.92,0 481.74,0 517.29,-36 346.37,-36 381.92,0"/>
<text text-anchor="middle" x="431.83" y="-14.3" font-family="Times,serif" font-size="14.00">blackhole2</text>
</g>
<!-- viaq&#45;&gt;blackhole2 -->
<g id="edge4" class="edge">
<title>viaq&#45;&gt;blackhole2</title>
<path fill="none" stroke="black" d="M431.83,-71.7C431.83,-63.98 431.83,-54.71 431.83,-46.11"/>
<polygon fill="black" stroke="black" points="435.33,-46.1 431.83,-36.1 428.33,-46.1 435.33,-46.1"/>
</g>
<!-- blackhole1 -->
<g id="node5" class="node">
<title>blackhole1</title>
<polygon fill="none" stroke="black" points="133.92,0 233.74,0 269.29,-36 98.37,-36 133.92,0"/>
<text text-anchor="middle" x="183.83" y="-14.3" font-family="Times,serif" font-size="14.00">blackhole1</text>
</g>
<!-- default_dedot_and_flatten&#45;&gt;blackhole1 -->
<g id="edge3" class="edge">
<title>default_dedot_and_flatten&#45;&gt;blackhole1</title>
<path fill="none" stroke="black" d="M183.83,-71.7C183.83,-63.98 183.83,-54.71 183.83,-46.11"/>
<polygon fill="black" stroke="black" points="187.33,-46.1 183.83,-36.1 180.33,-46.1 187.33,-46.1"/>
</g>
</g>
</svg>
